<?xml version="1.0" encoding="UTF-8" standalone="no"?>
<svg
   xmlns:dc="http://purl.org/dc/elements/1.1/"
   xmlns:cc="http://creativecommons.org/ns#"
   xmlns:rdf="http://www.w3.org/1999/02/22-rdf-syntax-ns#"
   xmlns:svg="http://www.w3.org/2000/svg"
   xmlns="http://www.w3.org/2000/svg"
   xmlns:sodipodi="http://sodipodi.sourceforge.net/DTD/sodipodi-0.dtd"
   xmlns:inkscape="http://www.inkscape.org/namespaces/inkscape"
   id="careernext-logo"
   version="1.1"
   inkscape:version="0.91 r13725"
   width="162.72501"
   height="64.012497"
   xml:space="preserve"
   sodipodi:docname="ceu-logo.svg"><sodipodi:namedview
     pagecolor="#ffffff"
     bordercolor="#666666"
     borderopacity="1"
     objecttolerance="10"
     gridtolerance="10"
     guidetolerance="10"
     inkscape:pageopacity="0"
     inkscape:pageshadow="2"
     inkscape:window-width="1440"
     inkscape:window-height="851"
     id="namedview3920"
     showgrid="false"
     inkscape:zoom="1.961507"
     inkscape:cx="36.497539"
     inkscape:cy="52.389224"
     inkscape:window-x="0"
     inkscape:window-y="0"
     inkscape:window-maximized="1"
     inkscape:current-layer="careernext-logo"
     fit-margin-top="0"
     fit-margin-left="0"
     fit-margin-right="0"
     fit-margin-bottom="0" /><metadata
     id="metadata3010"><rdf:RDF><cc:Work
         rdf:about=""><dc:format>image/svg+xml</dc:format><dc:type
           rdf:resource="http://purl.org/dc/dcmitype/StillImage" /><dc:title /></cc:Work></rdf:RDF></metadata><defs
     id="defs3008"><clipPath
       clipPathUnits="userSpaceOnUse"
       id="clipPath3018"><path
         d="M 0,325 720,325 720,0 0,0 0,325 Z"
         id="path3020"
         inkscape:connector-curvature="0" /></clipPath><clipPath
       id="clipPath3099"
       clipPathUnits="userSpaceOnUse"><path
         id="path3101"
         d="m 0,595.28 841.89,0 L 841.89,0 0,0 0,595.28 Z"
         inkscape:connector-curvature="0" /></clipPath></defs><g
     id="g3975"
     style="fill:#ffffff"><g
       transform="translate(0.03261,0.01576)"
       id="g4095"
       style="fill:#ffffff"><path
         inkscape:connector-curvature="0"
         d="m 60.87989,17.74674 0,10.925 c 0,0.0125 0,0.025 0,0.05 0,0.0125 0,0.025 0,0.05 l 0,0.0375 0,0 c -0.0375,1.5 -1.275,2.7125 -2.7875,2.7125 -1.5375,0 -2.7875,-1.25 -2.7875,-2.7875 0,-0.05 0,-0.0875 0.0125,-0.125 l 0,-10.8375 -4.425,0 0,11.275 c 0,3.75 3.225,6.975 7.2,6.975 4,0 7.225,-3.225 7.225,-6.975 l 0,-11.275 -4.425,0 z"
         id="path4064"
         style="fill:#ffffff" /><path
         inkscape:connector-curvature="0"
         d="m 35.70489,35.52174 12.7875,0 0,-3.65 -8.3375,0 0,-3.625 6.85,0 0,-3.6 -6.85,0 0,-3.3 8.3375,0 0,-3.6 -12.7875,0 0,17.775 z"
         id="path4062"
         style="fill:#ffffff" /><path
         inkscape:connector-curvature="0"
         d="m 24.77989,21.82174 c 0.575,-0.65 1.4875,-0.9875 2.4125,-0.9875 0.625,0 0.8875,0.25 4.4625,2.1125 l 2.0375,-2.1375 c -1.3375,-2.2375 -3.9,-3.55 -6.5,-3.55 -4.2,0 -7.575,3.3 -7.575,7.35 l 0,4.05 c 0,3.975 3.375,7.325 7.575,7.325 2.5875,0 5.1625,-1.3375 6.5,-3.575 l -2.0375,-2.1375 c -3.575,1.8875 -3.825,2.1125 -4.4625,2.1125 -0.925,0 -1.8375,-0.3 -2.4125,-0.9875 -0.55,-0.6 -0.55,-0.9 -0.55,-1.5625 l 0,-6.475 c 0,-0.625 0,-0.9625 0.55,-1.5625"
         id="path4060"
         style="fill:#ffffff" /></g><path
       inkscape:connector-curvature="0"
       d="m 131.5,56.1875 c 0,-1.875 -1.075,-2.8625 -3.125,-2.8625 l -4.1625,0 0,10.4875 1.15,0 0,-4.5 2.9125,0 c 1.3375,0 1.9625,0.5625 1.9625,1.775 l 0,2.725 1.1375,0 0,-2.775 c 0,-1.075 -0.3625,-1.8625 -1.0625,-2.3375 C 131.1,58.1875 131.5,57.3375 131.5,56.1875 m -1.1375,0.0375 c 0,0.5875 -0.175,1.05 -0.525,1.3875 -0.375,0.375 -0.925,0.5625 -1.6375,0.5625 l -2.8375,0 0,-3.725 3.05,0 c 1.3375,0 1.95,0.5625 1.95,1.7875 M 99.15,61.55 c -0.6,-0.9125 -1.4,-2.1125 -2.4,-3.5875 -1.2875,-1.925 -2.275,-3.4375 -2.925,-4.4875 l -0.1,-0.15 -1.075,0 0,10.4875 1.15,0 0,-8.2625 5.3375,8.125 0.1,0.1375 1.075,0 0,-10.4875 -1.15,0 0,8.225 z m 3.4375,2.25 1.15,0 0,-10.4875 -1.15,0 0,10.4875 z m -13.175,-3.9625 c 0,2.0125 -0.825,2.95 -2.5875,2.95 -1.75,0 -2.5625,-0.95 -2.5625,-3 l 0,-6.4625 -1.15,0 0,6.475 c 0,1.2125 0.2375,2.1625 0.6875,2.8125 0.6125,0.8625 1.625,1.3 3.025,1.3 1.4125,0 2.4375,-0.425 3.025,-1.275 0.475,-0.65 0.7125,-1.5875 0.7125,-2.8 l 0,-6.5 -1.15,0 0,6.525 z m 27.45,-0.9375 4.9375,0 0,-1.1 -4.9375,0 0,-3.35 5.5625,0 0,-1.1125 -6.7,0 0,10.4875 6.775,0 0,-1.1125 -5.6375,0 0,-3.7875 z m -7.075,2.85 -3.0625,-8.425 -1.2125,0 3.825,10.4875 0.925,0 3.7125,-10.4875 -1.2125,0 -2.975,8.425 z m 51.5625,-8.425 -3.225,4.3 -3.2,-4.3 -1.3875,0 4.0375,5.4625 0,5.025 1.15,0 0,-5.025 4,-5.4625 -1.375,0 z m -21.6625,5.4625 c -0.475,-0.3 -1.375,-0.6 -2.7375,-0.9 -0.775,-0.1625 -1.3125,-0.35 -1.6125,-0.575 -0.375,-0.2625 -0.55,-0.6375 -0.55,-1.175 0,-1.1375 0.7375,-1.675 2.325,-1.675 0.9125,0 1.5625,0.1875 1.95,0.5625 0.3375,0.325 0.525,0.8875 0.575,1.675 l 0.0125,0.3 1.125,0 0,-0.325 c -0.0375,-2.175 -1.3,-3.3375 -3.65,-3.3375 -2.8625,0 -3.4625,1.5125 -3.4625,2.7875 0,0.95 0.4,1.7 1.175,2.2 0.3875,0.2375 1.1,0.5 2.175,0.775 0.8625,0.225 1.425,0.3875 1.675,0.475 0.4375,0.15 0.7375,0.35 0.9,0.5875 0.1375,0.2 0.2125,0.525 0.2125,0.9375 0,0.5875 -0.2,1.0125 -0.6125,1.3125 -0.4375,0.325 -1.05,0.4875 -1.8125,0.4875 -1.925,0 -2.825,-0.8 -2.825,-2.5125 l 0,-0.5125 -1.15,0 0,0.5625 c 0,1.1 0.3375,1.975 0.9875,2.6 0.7,0.65 1.6875,0.975 2.9625,0.975 1.025,0 1.8625,-0.2375 2.5125,-0.7125 0.725,-0.525 1.0875,-1.25 1.0875,-2.1625 0,-1.0625 -0.425,-1.8625 -1.2625,-2.375 m 5.6125,-4.2875 3.1125,0 0,9.3625 1.15,0 0,-9.3625 3.0875,0 0,-1.1125 -7.35,0 0,1.1125 z m -2.6125,9.3625 1.15,0 0,-10.4875 -1.15,0 0,10.4875 z M 130.45,41.15 l 4.9375,0 0,-1.1 -4.9375,0 0,-3.35 5.5625,0 0,-1.1125 -6.7,0 0,10.4875 6.775,0 0,-1.1125 -5.6375,0 0,-3.7875 z m 23.6125,-5.575 0,8.225 c -0.6,-0.9125 -1.4125,-2.125 -2.4,-3.5875 -1.3,-1.9375 -2.275,-3.4375 -2.925,-4.4875 l -0.0875,-0.15 -1.075,0 0,10.4875 1.15,0 0,-8.2625 5.4375,8.2625 1.075,0 0,-10.4875 -1.15,0 z m -69.8,5.575 4.9375,0 0,-1.1 -4.9375,0 0,-3.35 5.5625,0 0,-1.1125 -6.7,0 0,10.4875 6.775,0 0,-1.1125 -5.6375,0 0,-3.7875 z m 24.175,-2.7125 c 0,-1.875 -1.075,-2.8625 -3.125,-2.8625 l -4.1625,0 0,10.4875 1.15,0 0,-4.5 2.9125,0 c 1.3375,0 1.975,0.5625 1.975,1.775 l 0,2.725 1.1375,0 0,-2.775 c 0,-1.075 -0.3625,-1.8625 -1.0625,-2.3375 0.7875,-0.5125 1.1875,-1.3625 1.1875,-2.5125 m -1.15,0.025 c 0,0.5875 -0.175,1.05 -0.525,1.3875 -0.3625,0.375 -0.9125,0.5625 -1.6375,0.5625 l -2.8375,0 0,-3.725 3.05,0 c 1.325,0 1.95,0.5625 1.95,1.7875 m -9.3125,3.6 c 0,2.0125 -0.825,2.95 -2.5875,2.95 -1.75,0 -2.5625,-0.95 -2.5625,-3 l 0,-6.4625 -1.15,0 0,6.475 c 0,1.2125 0.2375,2.1625 0.6875,2.8125 0.6125,0.8625 1.625,1.3 3.025,1.3 1.4125,0 2.4375,-0.425 3.025,-1.275 0.475,-0.6375 0.7125,-1.5875 0.7125,-2.8 l 0,-6.5 -1.15,0 0,6.525 z m 26.6625,-6.7625 -4.025,0 0,10.4875 1.15,0 0,-4.3875 2.7375,0 c 1.0375,0 1.8625,-0.275 2.45,-0.8125 0.6,-0.55 0.9125,-1.2875 0.9125,-2.2 0,-2.0125 -1.1125,-3.075 -3.225,-3.075 m 0.1,4.95 -2.9625,0 0,-3.85 2.9375,0 c 1.3625,0 2,0.625 2,1.975 0,0.55 -0.1625,0.975 -0.5,1.325 -0.35,0.3625 -0.85,0.55 -1.4875,0.55 M 114.4,35.5875 c -1.6125,0 -2.825,0.5875 -3.625,1.7375 -0.6125,0.9125 -0.925,2.075 -0.925,3.4625 0,1.425 0.3125,2.625 0.9375,3.5625 0.8,1.1875 2.0125,1.775 3.6125,1.775 1.625,0 2.85,-0.6125 3.6625,-1.825 0.6125,-0.925 0.925,-2.1125 0.925,-3.5125 0,-1.4 -0.325,-2.5625 -0.9625,-3.4625 -0.7875,-1.15 -2.0125,-1.7375 -3.625,-1.7375 m 0,9.4 c -1.2125,0 -2.0875,-0.4625 -2.6875,-1.4 -0.475,-0.75 -0.7125,-1.7 -0.7125,-2.8125 0,-1.125 0.2375,-2.05 0.7,-2.75 0.5875,-0.8875 1.475,-1.325 2.7,-1.325 1.2375,0 2.125,0.425 2.7125,1.2875 0.4875,0.7125 0.725,1.65 0.725,2.8 0,1.1375 -0.2375,2.1 -0.7125,2.8375 -0.5875,0.9375 -1.4875,1.3875 -2.725,1.3875 m 26.975,-9.4875 -3.9875,10.4875 1.2625,0 1.175,-3.1625 3.925,0 1.1625,3.1625 1.225,0 -3.825,-10.4875 -0.9625,0 z m 1.9875,6.2 -3.0875,0 1.575,-4.1375 1.5125,4.1375 z M 107.95,25.9875 c -0.6,-0.9 -1.4,-2.1125 -2.4,-3.5875 -1.3,-1.9375 -2.275,-3.4375 -2.925,-4.4875 l -0.1,-0.15 -1.075,0 0,10.4875 1.15,0 0,-8.2625 5.3375,8.125 0.1,0.15 1.075,0 0,-10.4875 -1.15,0 0,8.225 z m -13.825,-2.65 4.9375,0 0,-1.1 -4.9375,0 0,-3.35 5.5625,0 0,-1.1125 -6.7,0 0,10.4875 6.775,0 0,-1.1125 -5.6375,0 0,-3.7875 z m 16.3625,-4.4625 3.1125,0 0,9.3625 1.15,0 0,-9.3625 3.0875,0 0,-1.1125 -7.35,0 0,1.1125 z m -22.8,-0.1125 c 1.2375,0 2.1,0.475 2.6375,1.4625 l 0.175,0.325 0.95,-0.7125 -0.1375,-0.25 c -0.7375,-1.2875 -1.9625,-1.95 -3.625,-1.95 -1.625,0 -2.8625,0.625 -3.6875,1.8625 -0.625,0.9625 -0.9375,2.15 -0.9375,3.5625 0,1.3625 0.3,2.525 0.9125,3.4625 0.8,1.2 2.0125,1.8125 3.6,1.8125 1.6,0 2.825,-0.6625 3.6125,-1.95 l 0.15,-0.2375 -0.8875,-0.75 -0.2,0.3125 c -0.625,1.0125 -1.5,1.5 -2.6875,1.5 -1.1875,0 -2.0625,-0.4625 -2.65,-1.4 -0.475,-0.7625 -0.725,-1.7 -0.725,-2.8 0,-1.1375 0.2625,-2.1 0.7875,-2.875 0.6125,-0.925 1.5,-1.3625 2.7,-1.3625 M 126.7,20.6 c 0,-1.875 -1.075,-2.8625 -3.125,-2.8625 l -4.1625,0 0,10.4875 1.15,0 0,-4.5 2.9125,0 c 1.3375,0 1.975,0.5625 1.975,1.775 l 0,2.725 1.1375,0 0,-2.775 c 0,-1.075 -0.3625,-1.8625 -1.0625,-2.3375 0.7875,-0.5125 1.1875,-1.3625 1.1875,-2.5125 m -1.15,0.0375 c 0,0.5875 -0.175,1.05 -0.525,1.3875 -0.375,0.375 -0.925,0.5625 -1.6375,0.5625 l -2.8375,0 0,-3.725 3.05,0 c 1.3375,0 1.95,0.5625 1.95,1.7875 m 13.425,6.45 0,-9.3625 -1.15,0 0,10.4875 6.2625,0 0,-1.1125 -5.1125,0 z m -7.275,-9.3625 -3.9875,10.4875 1.2625,0 1.175,-3.1625 3.925,0 1.1625,3.1625 1.225,0 -3.825,-10.4875 -0.9625,0 z m 1.9875,6.2 -3.0875,0 1.575,-4.1375 1.5125,4.1375 z"
       id="path3996"
       style="fill:#ffffff" /><path
       id="path4080"
       d="M 13.65,3.3625 C 12.6875,3.9125 11.475,4.75 11.475,4.75 L 17.35,9.7625 15.9375,2.175 c 0,0 -0.9625,0.4125 -2.2875,1.175"
       inkscape:connector-curvature="0"
       style="fill:#ffffff" /><path
       id="path4078"
       d="M 40.3,49.5875 C 41.2625,49.0375 42.475,48.2 42.475,48.2 L 36.6,43.1875 38.0125,50.775 c 0,0 0.9625,-0.4125 2.2875,-1.175"
       inkscape:connector-curvature="0"
       style="fill:#ffffff" /><path
       id="path4076"
       d="m 13.4625,49.825 c 0.9625,0.55 2.2875,1.1875 2.2875,1.1875 l 1.4,-7.5875 -5.8625,5.0125 c 0,0 0.8375,0.625 2.1625,1.3875"
       inkscape:connector-curvature="0"
       style="fill:#ffffff" /><path
       id="path4074"
       d="m 3.5625,39.9625 c 0.55,0.9625 1.3875,2.175 1.3875,2.175 L 9.9625,36.2625 2.375,37.675 c 0,0 0.4125,0.9625 1.175,2.2875"
       inkscape:connector-curvature="0"
       style="fill:#ffffff" /><path
       id="path4072"
       d="m 0.0125,26.6875 c 0,1.1125 0.1125,2.575 0.1125,2.575 L 7.4,26.6875 0.125,24.1125 c 0,0 -0.125,1.0375 -0.125,2.575"
       inkscape:connector-curvature="0"
       style="fill:#ffffff" /><path
       id="path4070"
       d="M 26.65,45.925 24.075,53.2 c 0,0 1.025,0.125 2.575,0.125 1.1,0 2.575,-0.1125 2.575,-0.1125 l -2.575,-7.275 z"
       inkscape:connector-curvature="0"
       style="fill:#ffffff" /><path
       id="path4068"
       d="M 38,2.3 37.0375,9.325 42.45,4.875 c 0,0 -0.825,-0.625 -2.1625,-1.4 C 39.325,2.925 38,2.2875 38,2.2875"
       inkscape:connector-curvature="0"
       style="fill:#ffffff" /><path
       id="path4066"
       d="m 26.6625,0.0125 c -1.1125,0 -2.575,0.1125 -2.575,0.1125 l 2.575,7.275 2.575,-7.275 C 29.2375,0.125 28.2,0 26.6625,0"
       inkscape:connector-curvature="0"
       style="fill:#ffffff" /></g><g
     id="g3990"
     style="fill:#00a9d5;fill-opacity:1"><g
       class="color-brand"
       transform="translate(0.03261,0.01576)"
       id="g4083"
       style="fill:#00a9d5;fill-opacity:1"><path
         class="color-brand"
         inkscape:connector-curvature="0"
         d="m 74.17989,19.89674 c 0.6625,0 1.2,-0.5375 1.2,-1.2 0,-0.6625 -0.5375,-1.2 -1.2,-1.2 -0.6625,0 -1.2,0.5375 -1.2,1.2 0,0.6625 0.5375,1.2 1.2,1.2"
         id="path3946"
         style="fill:#00a9d5;fill-opacity:1" /><path
         class="color-brand"
         inkscape:connector-curvature="0"
         d="m 74.17989,22.37174 c -0.6625,0 -1.2,0.5375 -1.2,1.2 0,0.6625 0.5375,1.2 1.2,1.2 0.6625,0 1.2,-0.5375 1.2,-1.2 0,-0.6625 -0.5375,-1.2 -1.2,-1.2"
         id="path3944"
         style="fill:#00a9d5;fill-opacity:1" /><path
         class="color-brand"
         inkscape:connector-curvature="0"
         d="m 74.17989,27.25924 c -0.6625,0 -1.2,0.5375 -1.2,1.2 0,0.6625 0.5375,1.2 1.2,1.2 0.6625,0 1.2,-0.5375 1.2,-1.2 0,-0.6625 -0.5375,-1.2 -1.2,-1.2"
         id="path3942"
         style="fill:#00a9d5;fill-opacity:1" /><path
         class="color-brand"
         inkscape:connector-curvature="0"
         d="m 74.17989,32.14674 c -0.6625,0 -1.2,0.5375 -1.2,1.2 0,0.6625 0.5375,1.2 1.2,1.2 0.6625,0 1.2,-0.5375 1.2,-1.2 0,-0.6625 -0.5375,-1.2 -1.2,-1.2"
         id="path3940"
         style="fill:#00a9d5;fill-opacity:1" /><path
         class="color-brand"
         inkscape:connector-curvature="0"
         d="m 74.17989,37.03424 c -0.6625,0 -1.2,0.5375 -1.2,1.2 0,0.6625 0.5375,1.2 1.2,1.2 0.6625,0 1.2,-0.5375 1.2,-1.2 0,-0.6625 -0.5375,-1.2 -1.2,-1.2"
         id="path3938"
         style="fill:#00a9d5;fill-opacity:1" /><path
         class="color-brand"
         inkscape:connector-curvature="0"
         d="m 74.17989,41.92174 c -0.6625,0 -1.2,0.5375 -1.2,1.2 0,0.6625 0.5375,1.2 1.2,1.2 0.6625,0 1.2,-0.5375 1.2,-1.2 0,-0.6625 -0.5375,-1.2 -1.2,-1.2"
         id="path3936"
         style="fill:#00a9d5;fill-opacity:1" /><path
         class="color-brand"
         inkscape:connector-curvature="0"
         d="m 74.17989,46.80924 c -0.6625,0 -1.2,0.5375 -1.2,1.2 0,0.6625 0.5375,1.2 1.2,1.2 0.6625,0 1.2,-0.5375 1.2,-1.2 0,-0.6625 -0.5375,-1.2 -1.2,-1.2"
         id="path3934"
         style="fill:#00a9d5;fill-opacity:1" /><path
         class="color-brand"
         inkscape:connector-curvature="0"
         d="m 74.17989,51.69674 c -0.6625,0 -1.2,0.5375 -1.2,1.2 0,0.6625 0.5375,1.2 1.2,1.2 0.6625,0 1.2,-0.5375 1.2,-1.2 0,-0.6625 -0.5375,-1.2 -1.2,-1.2"
         id="path3932"
         style="fill:#00a9d5;fill-opacity:1" /><path
         class="color-brand"
         inkscape:connector-curvature="0"
         d="m 74.17989,56.58424 c -0.6625,0 -1.2,0.5375 -1.2,1.2 0,0.6625 0.5375,1.2 1.2,1.2 0.6625,0 1.2,-0.5375 1.2,-1.2 0,-0.6625 -0.5375,-1.2 -1.2,-1.2"
         id="path3930"
         style="fill:#00a9d5;fill-opacity:1" /><path
         class="color-brand"
         inkscape:connector-curvature="0"
         d="m 74.17989,61.47174 c -0.6625,0 -1.2,0.5375 -1.2,1.2 0,0.6625 0.5375,1.2 1.2,1.2 0.6625,0 1.2,-0.5375 1.2,-1.2 0,-0.6625 -0.5375,-1.2 -1.2,-1.2"
         id="path3928"
         style="fill:#00a9d5;fill-opacity:1" /></g><path
       id="triangle-branded"
       d="M 3.6375,13.3375 C 3.0875,14.3 2.45,15.625 2.45,15.625 l 7.5875,1.4 -5.0125,-5.8625 c 0,0 -0.625,0.8375 -1.3875,2.1625"
       inkscape:connector-curvature="0"
       class="color-brand"
       style="fill:#00a9d5;fill-opacity:1" /></g></svg>